# xmcd
#
# Track frame offsets: 
#        150
#        16423
#        33606
#        46494
#        81091
#        90626
#        112194
#        133388
#        151767
#        167825
#        181481
#        201407
#        211469
#        227118
#        242381
#        266494
#
# Disc length: 3755 seconds
#
# Revision: 0
# Processed by: cddbd v1.5.2PL0 Copyright (c) Steve Scherf et al.
# Submitted via: ExactAudioCopy v1.0b3
#
DISCID=e00ea910
DTITLE=合辑 - 草原歌典-第一辑
DYEAR=1900
DGENRE=
TTITLE0=美丽的草原我的家
TTITLE1=草原迎宾曲
TTITLE2=草原牧歌
TTITLE3=天堂
TTITLE4=金杯银杯
TTITLE5=心中的草原
TTITLE6=乳香飘
TTITLE7=想回家
TTITLE8=深深牧人情
TTITLE9=骏马奔驰保边疆
TTITLE10=我那落地生根的故乡
TTITLE11=鄂伦春小唱
TTITLE12=嘎达梅林
TTITLE13=黑缎子坎肩
TTITLE14=呼伦贝尔大草原
TTITLE15=草原上升起不落的太阳
EXTD=
EXTT0=
EXTT1=
EXTT2=
EXTT3=
EXTT4=
EXTT5=
EXTT6=
EXTT7=
EXTT8=
EXTT9=
EXTT10=
EXTT11=
EXTT12=
EXTT13=
EXTT14=
EXTT15=
PLAYORDER=
